<svg xmlns="http://www.w3.org/2000/svg" viewBox="0 0 48 48" width="48px" height="48px">
  <path d="M 8.5 7 C 5.4802259 7 3 9.4802259 3 12.5 L 3 35.5 C 3 38.519774 5.4802259 41 8.5 41 L 39.5 41 C 42.519774 41 45 38.519774 45 35.5 L 45 12.5 C 45 9.4802259 42.519774 7 39.5 7 L 8.5 7 z M 8.5 10 L 39.5 10 C 40.898226 10 42 11.101774 42 12.5 L 42 35.5 C 42 36.898226 40.898226 38 39.5 38 L 34 38 L 34 31.5 C 34 29.57 32.43 28 30.5 28 L 17.5 28 C 15.57 28 14 29.57 14 31.5 L 14 38 L 8.5 38 C 7.1017741 38 6 36.898226 6 35.5 L 6 12.5 C 6 11.101774 7.1017741 10 8.5 10 z M 24 14 A 6 6 0 0 0 24 26 A 6 6 0 0 0 24 14 z" fill="#464366" />
</svg>