<svg xmlns="http://www.w3.org/2000/svg" viewBox="0 0 32 32" width="50px" height="50px">
  <path d="M25 6A1 1 0 1025 8 1 1 0 1025 6zM22 6A1 1 0 1022 8 1 1 0 1022 6zM19 6A1 1 0 1019 8 1 1 0 1019 6zM16 6A1 1 0 1016 8 1 1 0 1016 6zM13 6A1 1 0 1013 8 1 1 0 1013 6zM10 6A1 1 0 1010 8 1 1 0 1010 6zM7 6A1 1 0 107 8 1 1 0 107 6zM4 6A1 1 0 104 8 1 1 0 104 6zM25 15A1 1 0 1025 17 1 1 0 1025 15zM22 15A1 1 0 1022 17 1 1 0 1022 15zM19 15A1 1 0 1019 17 1 1 0 1019 15zM16 15A1 1 0 1016 17 1 1 0 1016 15zM13 15A1 1 0 1013 17 1 1 0 1013 15zM10 15A1 1 0 1010 17 1 1 0 1010 15zM7 15A1 1 0 107 17 1 1 0 107 15zM4 15A1 1 0 104 17 1 1 0 104 15zM25 24A1 1 0 1025 26 1 1 0 1025 24zM22 24A1 1 0 1022 26 1 1 0 1022 24zM19 24A1 1 0 1019 26 1 1 0 1019 24zM16 24A1 1 0 1016 26 1 1 0 1016 24zM13 24A1 1 0 1013 26 1 1 0 1013 24zM10 24A1 1 0 1010 26 1 1 0 1010 24zM7 24A1 1 0 107 26 1 1 0 107 24zM4 24A1 1 0 104 26 1 1 0 104 24zM28 6A1 1 0 1028 8 1 1 0 1028 6zM28 15A1 1 0 1028 17 1 1 0 1028 15zM28 24A1 1 0 1028 26 1 1 0 1028 24z" fill="#fff" />
</svg>