<svg xmlns="http://www.w3.org/2000/svg" viewBox="0 0 48 48" width="48px" height="48px">
  <path d="M 9.5 5 C 7.57 5 6 6.57 6 8.5 L 6 10.210938 L 4.1074219 14.943359 C 3.9914219 15.232359 3.974875 15.545844 4.046875 15.839844 C 4.475875 20.435844 8.362 24 13 24 C 14.952 24 16.809609 23.383234 18.349609 22.240234 C 20.008609 23.382234 21.972 24 24 24 C 26.028 24 27.991391 23.382234 29.650391 22.240234 C 31.190391 23.383234 33.048 24 35 24 C 39.62 24 43.493266 20.464484 43.947266 15.896484 C 44.032266 15.585484 44.015578 15.250359 43.892578 14.943359 L 42 10.210938 L 42 8.5 C 42 6.57 40.43 5 38.5 5 L 9.5 5 z M 12.5 9 C 13.328 9 14 9.672 14 10.5 C 14 11.328 13.328 12 12.5 12 C 11.672 12 11 11.328 11 10.5 C 11 9.672 11.672 9 12.5 9 z M 17.5 9 C 18.328 9 19 9.672 19 10.5 C 19 11.328 18.328 12 17.5 12 C 16.672 12 16 11.328 16 10.5 C 16 9.672 16.672 9 17.5 9 z M 6 23.429688 L 6 38.5 C 6 41.533 8.468 44 11.5 44 L 36.5 44 C 39.532 44 42 41.533 42 38.5 L 42 23.484375 C 40.095 25.057375 37.657 26 35 26 C 33.087 26 31.250187 25.518656 29.617188 24.597656 C 27.891187 25.518656 25.973 26 24 26 C 22.027 26 20.108812 25.518656 18.382812 24.597656 C 16.749813 25.518656 14.913 26 13 26 C 10.367 26 7.919 25.029688 6 23.429688 z M 15 29 L 22.5 29 L 22.5 41 L 14 41 L 14 30 C 14 29.448 14.448 29 15 29 z M 25.5 29 L 33 29 C 33.552 29 34 29.448 34 30 L 34 41 L 25.5 41 L 25.5 29 z" fill="#464366" />
</svg>